<?xml version="1.0" encoding="iso-8859-1"?>
<!-- Generator: Adobe Illustrator 19.0.0, SVG Export Plug-In . SVG Version: 6.00 Build 0)  -->
<svg version="1.1" id="Layer_1" xmlns="http://www.w3.org/2000/svg" xmlns:xlink="http://www.w3.org/1999/xlink" x="0px" y="0px"
	 viewBox="0 0 512 512" style="enable-background:new 0 0 512 512;" xml:space="preserve">
<path style="fill:#FFDA44;" d="M106.237,196.449v-14.592c14.362-5.705,18.162-9.505,23.867-23.867h14.592
	c5.705,14.362,9.505,18.162,23.867,23.867v14.592c-14.362,5.705-18.162,9.505-23.867,23.867h-14.592
	C124.399,205.954,120.599,202.154,106.237,196.449z"/>
<path style="fill:#FFFFFF;" d="M443.112,340.255v1.005c0,0.176-0.006,0.351-0.006,0.526c-0.003,0.418-0.009,0.834-0.016,1.248
	C442.131,436.366,365.737,512,271.963,512c-93.877,0-170.338-75.802-171.129-169.278c-0.004-0.295-0.008-0.592-0.012-0.891
	c-0.001-0.191-0.007-0.38-0.007-0.57v-1.026c0-7.976,0.555-15.827,1.623-23.521c-7.652-18.486-13.755-24.128-33.361-31.916v-14.592
	c20.433-8.123,26.211-13.901,34.334-34.334h14.592c2.617,6.595,5.004,11.661,7.715,15.764
	c22.872-37.412,59.761-65.392,103.327-76.656v-59.835h-32.45V47.105h19.606L206.288,0h130.303l-9.913,47.105h19.606v68.041h-32.45
	v59.572C388.03,193.392,443.112,260.512,443.112,340.255z"/>
<path style="fill:#91DC5A;" d="M410.714,343.343l-0.54,8.364c-2.244,34.596-17.496,66.983-42.961,91.185
	c-25.704,24.432-59.158,37.883-94.212,37.883c-0.416,0-0.821,0-1.236-0.01c-0.416,0.01-0.821,0.01-1.236,0.01
	c-35.054,0-68.508-13.451-94.212-37.883c-25.465-24.202-40.717-56.589-42.961-91.185l-0.54-8.364H410.714z"/>
<path style="fill:#FFDA44;" d="M183.071,282.075c-5.705-14.362-9.505-18.162-23.867-23.867v-14.592
	c14.362-5.705,18.162-9.505,23.867-23.867h14.592c5.705,14.362,9.505,18.162,23.867,23.867v14.592
	c-14.362,5.705-18.162,9.505-23.867,23.867H183.071z"/>
<polygon style="fill:#A0815C;" points="232.249,47.105 225.633,15.702 317.247,15.702 310.631,47.105 "/>
<polygon style="fill:#E0E0E2;" points="286.618,72.751 286.618,88.453 330.583,88.453 330.583,99.444 212.297,99.444 
	212.297,62.807 219.509,62.807 219.53,62.943 323.35,62.932 323.371,62.807 330.583,62.807 330.583,72.751 "/>
<path style="fill:#FFDA44;" d="M152.149,270.341v14.592c-20.433,8.123-26.211,13.901-34.334,34.334h-14.592
	c-8.123-20.433-13.901-26.211-34.334-34.334v-14.592c20.433-8.123,26.211-13.901,34.334-34.334h14.592
	C125.938,256.44,131.716,262.218,152.149,270.341z"/>
<path d="M133.76,351.435c0.572,8.904,2.011,17.773,4.278,26.364l15.181-4.009c-2.01-7.609-3.285-15.468-3.79-23.359L133.76,351.435z
	"/>
<path d="M330.103,180.633l-5.322,14.772c61.385,22.114,102.628,80.731,102.628,145.856c0,85.485-69.733,155.033-155.447,155.033
	s-155.447-69.548-155.447-155.033c0-7.525,0.55-15.075,1.627-22.479c8.048-20.15,13.875-25.912,34.194-33.987v-14.591
	c-6.033-2.397-10.781-4.592-14.696-7.019c18.392-31.447,47.108-55.39,81.503-67.782l-5.322-14.772
	c-36.702,13.223-67.528,38.391-87.826,71.446c-2.825-4.19-5.28-9.377-7.994-16.207h-14.592
	c-8.122,20.436-13.897,26.212-34.334,34.334v14.591c19.696,7.827,25.775,13.48,33.46,32.175c-1.142,8.008-1.723,16.162-1.723,24.29
	c0,94.143,76.777,170.735,171.148,170.735S443.11,435.404,443.11,341.261C443.112,269.537,397.697,204.985,330.103,180.633z
	 M90.407,277.501c9.024-5.229,15.072-11.277,20.301-20.301c5.229,9.024,11.276,15.072,20.3,20.301
	c-9.024,5.229-15.072,11.276-20.3,20.3C105.479,288.778,99.43,282.729,90.407,277.501z"/>
<rect x="241.607" y="343.343" width="26.169" height="15.702"/>
<path d="M271.963,480.777c35.316,0,69.028-13.453,94.925-37.883c25.654-24.202,41.024-56.587,43.278-91.189l0.544-8.361H278.244
	v15.702h115.415c-3.729,27.462-16.871,52.924-37.545,72.427c-22.97,21.669-52.856,33.604-84.15,33.604
	c-49.758,0-94.275-29.657-113.413-75.555l-14.493,6.043C165.643,447.328,215.849,480.777,271.963,480.777z"/>
<path d="M229.045,262.741h15.702V115.146h53.386v147.596h15.702V115.146h32.45V47.105h-19.606L336.596,0h-130.31l9.916,47.105
	h-19.606v68.041h32.45L229.045,262.741L229.045,262.741z M225.636,15.702h91.608l-6.611,31.403h-78.385L225.636,15.702z
	 M212.297,62.807h118.286v9.944h-43.965v15.702h43.965v10.991H212.297V62.807z"/>
<rect x="249.981" y="72.751" width="26.169" height="15.702"/>
<path d="M130.104,220.315h14.591c5.709-14.366,9.501-18.158,23.867-23.867v-14.591c-14.366-5.709-18.158-9.501-23.867-23.867
	h-14.591c-5.709,14.366-9.501,18.157-23.867,23.867v14.591C120.603,202.157,124.395,205.949,130.104,220.315z M137.4,178.303
	c2.99,4.423,6.427,7.86,10.85,10.85c-4.423,2.99-7.86,6.427-10.85,10.85c-2.99-4.423-6.427-7.86-10.85-10.85
	C130.973,186.163,134.41,182.726,137.4,178.303z"/>
<path d="M197.662,282.075c5.709-14.366,9.501-18.158,23.867-23.867v-14.591c-14.366-5.709-18.157-9.501-23.867-23.867h-14.591
	c-5.708,14.366-9.501,18.157-23.867,23.867v14.591c14.366,5.708,18.157,9.501,23.867,23.867H197.662z M190.367,240.063
	c2.99,4.423,6.427,7.86,10.85,10.85c-4.423,2.99-7.86,6.427-10.85,10.85c-2.99-4.423-6.427-7.86-10.85-10.85
	C183.94,247.923,187.377,244.485,190.367,240.063z"/>
<g>
</g>
<g>
</g>
<g>
</g>
<g>
</g>
<g>
</g>
<g>
</g>
<g>
</g>
<g>
</g>
<g>
</g>
<g>
</g>
<g>
</g>
<g>
</g>
<g>
</g>
<g>
</g>
<g>
</g>
</svg>
