<?xml version="1.0" encoding="iso-8859-1"?>
<!-- Generator: Adobe Illustrator 19.0.0, SVG Export Plug-In . SVG Version: 6.00 Build 0)  -->
<svg version="1.1" id="Capa_1" xmlns="http://www.w3.org/2000/svg" xmlns:xlink="http://www.w3.org/1999/xlink" x="0px" y="0px"
	 viewBox="0 0 512 512" style="enable-background:new 0 0 512 512;" xml:space="preserve">
<rect x="228.514" y="397.964" style="fill:#E4EAF8;" width="105.546" height="59.004"/>
<rect x="228.514" y="397.964" style="fill:#C2C7D0;" width="20.001" height="59.004"/>
<path style="fill:#AFB5BC;" d="M472.738,24.306H89.83c-17.515,0-31.764,14.249-31.764,31.764v178.034v135.808
	c0,17.515,14.249,31.764,31.764,31.764h65.675c7.09,0,312.784,0,317.232,0c17.515,0,31.764-14.249,31.764-31.764
	c0-3.936,0-306.867,0-313.842C504.502,38.556,490.253,24.306,472.738,24.306z"/>
<path style="fill:#969A9F;" d="M78.068,369.912V234.103V56.07c0-17.514,14.249-31.764,31.764-31.764H89.83
	c-17.515,0-31.764,14.249-31.764,31.764v178.034v135.808c0,17.515,14.249,31.764,31.764,31.764h20.001
	C92.317,401.676,78.068,387.427,78.068,369.912z"/>
<path style="fill:#FFFFFF;" d="M93.36,110.74v123.363v129.441c0,1.568,1.271,2.839,2.839,2.839h59.308c3.116,0,307.215,0,310.864,0
	c1.568,0,2.839-1.271,2.839-2.839c0-9.533,0-242.315,0-252.804H93.36z"/>
<path style="fill:#E4EAF8;" d="M113.361,363.544V234.103V110.74H93.36v123.363v129.441c0,1.568,1.271,2.839,2.839,2.839H116.2
	C114.632,366.383,113.361,365.112,113.361,363.544z"/>
<path style="fill:#92E0C0;" d="M466.369,59.6H153.506v53.14h315.702V62.439C469.208,60.871,467.937,59.6,466.369,59.6z"/>
<path style="fill:#6DC296;" d="M155.506,59.6H96.199c-1.568,0-2.839,1.271-2.839,2.839v50.301h62.147L155.506,59.6L155.506,59.6z"/>
<path style="fill:#5FA77E;" d="M116.2,59.6H96.199c-1.568,0-2.839,1.271-2.839,2.839v50.301h20.001V62.439
	C113.361,60.871,114.632,59.6,116.2,59.6z"/>
<path style="fill:#AFB5BC;" d="M365.852,487.694H196.716c-6.87,0-12.44-5.569-12.44-12.44v-11.071c0-6.87,5.569-12.44,12.44-12.44
	h169.136c6.87,0,12.44,5.569,12.44,12.44v11.071C378.292,482.123,372.723,487.694,365.852,487.694z"/>
<path style="fill:#969A9F;" d="M365.852,467.692H196.716c-5.294,0-9.804-3.313-11.6-7.974c-0.535,1.388-0.84,2.889-0.84,4.465
	v11.071c0,6.87,5.569,12.44,12.44,12.44h169.136c6.87,0,12.44-5.569,12.44-12.44v-11.071c0-1.576-0.305-3.078-0.84-4.465
	C375.656,464.379,371.146,467.692,365.852,467.692z"/>
<path style="fill:#E4EAF8;" d="M136.223,487.694H26.786c-10.606,0-19.283-8.678-19.283-19.283V253.386
	c0-10.606,8.678-19.283,19.283-19.283h109.438c10.606,0,19.283,8.678,19.283,19.283V468.41
	C155.505,479.016,146.829,487.694,136.223,487.694z"/>
<path style="fill:#C2C7D0;" d="M30.779,468.41V253.386c0-10.606,8.678-19.283,19.283-19.283H26.786
	c-10.606,0-19.283,8.678-19.283,19.283V468.41c0,10.606,8.678,19.283,19.283,19.283h23.275
	C39.455,487.694,30.779,479.016,30.779,468.41z"/>
<rect x="7.502" y="316.909" style="fill:#FEA82F;" width="147.999" height="116.007"/>
<rect x="7.502" y="316.909" style="fill:#FF9052;" width="23.275" height="116.007"/>
<rect x="37.812" y="285.867" style="fill:#ABFFDB;" width="117.697" height="33.332"/>
<rect x="7.502" y="285.867" style="fill:#92E0C0;" width="33.664" height="33.332"/>
<rect x="7.502" y="285.867" style="fill:#5FA77E;" width="23.275" height="33.332"/>
<path style="fill:#FF9052;" d="M415.813,198.691H146.491c-6.6,0-12.001-5.4-12.001-12.001v-17.357c0-6.6,5.4-12.001,12.001-12.001
	h269.322c6.6,0,12.001,5.4,12.001,12.001v17.357C427.814,193.291,422.414,198.691,415.813,198.691z"/>
<path style="fill:#FF8031;" d="M415.813,178.387H146.491c-6.1,0-11.167-4.616-11.9-10.527c-0.06,0.484-0.101,0.974-0.101,1.474
	v17.357c0,6.6,5.4,12.001,12.001,12.001h269.321c6.6,0,12.001-5.4,12.001-12.001v-17.357c0-0.5-0.041-0.989-0.101-1.474
	C426.98,173.771,421.914,178.387,415.813,178.387z"/>
<path style="fill:#FFC850;" d="M167.506,328.597h119.048c6.6,0,12.001-5.4,12.001-12.001v-73.603c0-6.6-5.4-12.001-12.001-12.001
	H167.506c-6.6,0-12.001,5.4-12.001,12.001v73.603C155.505,323.197,160.906,328.597,167.506,328.597z"/>
<path style="fill:#FEA82F;" d="M175.986,316.596v-73.603c0-6.6,5.4-12.001,12.001-12.001h-20.479c-6.6,0-12.001,5.4-12.001,12.001
	v73.603c0,6.6,5.4,12.001,12.001,12.001h20.479C181.386,328.597,175.986,323.197,175.986,316.596z"/>
<g>
	<path style="fill:#FFFFFF;" d="M86.448,467.773h-9.894c-4.143,0-7.5-3.357-7.5-7.5c0-4.143,3.357-7.5,7.5-7.5h9.894
		c4.143,0,7.5,3.357,7.5,7.5C93.949,464.416,90.591,467.773,86.448,467.773z"/>
	<path style="fill:#FFFFFF;" d="M86.448,268.368h-9.894c-4.143,0-7.5-3.357-7.5-7.5s3.357-7.5,7.5-7.5h9.894
		c4.143,0,7.5,3.357,7.5,7.5S90.591,268.368,86.448,268.368z"/>
</g>
<g>
	<path style="fill:#AFB5BC;" d="M417.615,248.383h-82.769c-4.143,0-7.5-3.357-7.5-7.5c0-4.143,3.357-7.5,7.5-7.5h82.769
		c4.143,0,7.5,3.357,7.5,7.5C425.116,245.026,421.758,248.383,417.615,248.383z"/>
	<path style="fill:#AFB5BC;" d="M417.615,287.294h-82.769c-4.143,0-7.5-3.357-7.5-7.5c0-4.143,3.357-7.5,7.5-7.5h82.769
		c4.143,0,7.5,3.357,7.5,7.5C425.116,283.937,421.758,287.294,417.615,287.294z"/>
	<path style="fill:#AFB5BC;" d="M417.615,326.207h-82.769c-4.143,0-7.5-3.357-7.5-7.5s3.357-7.5,7.5-7.5h82.769
		c4.143,0,7.5,3.357,7.5,7.5S421.758,326.207,417.615,326.207z"/>
</g>
<g>
	<path style="fill:#474D54;" d="M96.196,52.099c-5.701,0-10.34,4.638-10.34,10.34v50.301c0,4.143,3.357,7.5,7.5,7.5h375.849
		c4.143,0,7.5-3.357,7.5-7.5V62.439c0-5.701-4.638-10.34-10.34-10.34H96.196z M100.858,105.239V67.1h47.146v38.139H100.858z
		 M461.706,105.239H163.004V67.1h298.702L461.706,105.239L461.706,105.239z"/>
	<path style="fill:#474D54;" d="M504.5,202.99c4.143,0,7.5-3.357,7.5-7.5V56.07c0-21.65-17.613-39.264-39.264-39.264H89.827
		c-21.65,0-39.264,17.614-39.264,39.264v170.532h-23.78C12.015,226.603,0,238.618,0,253.387v215.024
		c0,14.769,12.015,26.783,26.783,26.783H136.22c14.769,0,26.784-12.015,26.784-26.783v-59.234h58.003v35.066h-24.292
		c-10.996,0-19.94,8.945-19.94,19.939v11.071c0,10.995,8.945,19.939,19.94,19.939h169.135c10.996,0,19.94-8.945,19.94-19.939
		v-11.071c0-10.995-8.945-19.939-19.94-19.939h-24.291v-35.066h131.178c21.65,0,39.264-17.613,39.264-39.264V230.492
		c0-4.143-3.357-7.5-7.5-7.5s-7.5,3.357-7.5,7.5v139.42c0,13.379-10.885,24.263-24.263,24.263H163.004V253.387
		c0-14.769-12.016-26.784-26.784-26.784H65.565V56.07c0-13.379,10.885-24.263,24.263-24.263h382.908
		C486.115,31.807,497,42.692,497,56.07V195.49C496.999,199.633,500.356,202.99,504.5,202.99z M370.789,464.183v11.071
		c0,2.723-2.216,4.938-4.939,4.938H196.714c-2.724,0-4.939-2.216-4.939-4.938v-11.071c0-2.723,2.216-4.938,4.939-4.938h169.135
		C368.573,459.244,370.789,461.46,370.789,464.183z M326.557,409.177v35.066h-90.549v-35.066H326.557z M148.003,293.367v18.331
		H48.664v-18.331H148.003z M33.663,311.698H15.001v-18.331h18.662V311.698z M148.003,468.41c0,6.496-5.285,11.782-11.783,11.782
		H26.783c-6.496,0-11.782-5.285-11.782-11.782V326.699h133.002V468.41z M132.82,241.604c8.372,0,15.184,6.811,15.184,15.184v21.578
		H15.001v-24.98c0-6.497,5.285-11.783,11.782-11.783H132.82z"/>
</g>
<g>
</g>
<g>
</g>
<g>
</g>
<g>
</g>
<g>
</g>
<g>
</g>
<g>
</g>
<g>
</g>
<g>
</g>
<g>
</g>
<g>
</g>
<g>
</g>
<g>
</g>
<g>
</g>
<g>
</g>
</svg>
