<svg xmlns="http://www.w3.org/2000/svg" height="596pt" version="1.1" viewBox="1 1 596.719 596" width="596pt">
<g id="surface1">
<path d="M 119.402344 10.308594 L 557.199219 10.308594 C 573.6875 10.308594 587.050781 23.671875 587.050781 40.160156 L 587.050781 408.308594 C 587.050781 424.796875 573.6875 438.160156 557.199219 438.160156 L 119.402344 438.160156 C 102.914062 438.160156 89.550781 424.796875 89.550781 408.308594 L 89.550781 40.160156 C 89.550781 23.671875 102.914062 10.308594 119.402344 10.308594 Z M 119.402344 10.308594 " style=" stroke:none;fill-rule:nonzero;fill:rgb(52.941176%,80.784314%,85.098039%);fill-opacity:1;" />
<path d="M 248.75 438.160156 L 557.199219 438.160156 C 573.6875 438.160156 587.050781 424.796875 587.050781 408.308594 L 587.050781 99.859375 Z M 248.75 438.160156 " style=" stroke:none;fill-rule:nonzero;fill:rgb(44.313725%,76.862745%,81.960784%);fill-opacity:1;" />
<path d="M 308.449219 438.160156 L 278.597656 438.160156 L 278.597656 318.757812 C 295.085938 318.757812 308.449219 332.121094 308.449219 348.609375 Z M 308.449219 438.160156 " style=" stroke:none;fill-rule:nonzero;fill:rgb(36.862745%,70.196078%,81.960784%);fill-opacity:1;" />
<path d="M 119.402344 40.160156 L 139.300781 40.160156 L 139.300781 60.058594 L 119.402344 60.058594 Z M 119.402344 40.160156 " style=" stroke:none;fill-rule:nonzero;fill:rgb(36.862745%,70.196078%,81.960784%);fill-opacity:1;" />
<path d="M 159.199219 40.160156 L 179.101562 40.160156 L 179.101562 60.058594 L 159.199219 60.058594 Z M 159.199219 40.160156 " style=" stroke:none;fill-rule:nonzero;fill:rgb(36.862745%,70.196078%,81.960784%);fill-opacity:1;" />
<path d="M 199 40.160156 L 218.902344 40.160156 L 218.902344 60.058594 L 199 60.058594 Z M 199 40.160156 " style=" stroke:none;fill-rule:nonzero;fill:rgb(36.862745%,70.196078%,81.960784%);fill-opacity:1;" />
<path d="M 119.402344 79.960938 L 557.199219 79.960938 L 557.199219 99.859375 L 119.402344 99.859375 Z M 119.402344 79.960938 " style=" stroke:none;fill-rule:nonzero;fill:rgb(36.862745%,70.196078%,81.960784%);fill-opacity:1;" />
<path d="M 467.648438 278.960938 L 557.199219 278.960938 L 557.199219 298.859375 L 467.648438 298.859375 Z M 467.648438 278.960938 " style=" stroke:none;fill-rule:nonzero;fill:rgb(36.862745%,70.196078%,81.960784%);fill-opacity:1;" />
<path d="M 298.5 328.710938 L 477.597656 328.710938 L 477.597656 348.609375 L 298.5 348.609375 Z M 298.5 328.710938 " style=" stroke:none;fill-rule:nonzero;fill:rgb(36.862745%,70.196078%,81.960784%);fill-opacity:1;" />
<path d="M 407.949219 179.460938 L 517.398438 179.460938 L 517.398438 199.359375 L 407.949219 199.359375 Z M 407.949219 179.460938 " style=" stroke:none;fill-rule:nonzero;fill:rgb(36.862745%,70.196078%,81.960784%);fill-opacity:1;" />
<path d="M 407.949219 129.710938 L 487.550781 129.710938 L 487.550781 149.609375 L 407.949219 149.609375 Z M 407.949219 129.710938 " style=" stroke:none;fill-rule:nonzero;fill:rgb(36.862745%,70.196078%,81.960784%);fill-opacity:1;" />
<path d="M 507.449219 129.710938 L 557.199219 129.710938 L 557.199219 149.609375 L 507.449219 149.609375 Z M 507.449219 129.710938 " style=" stroke:none;fill-rule:nonzero;fill:rgb(36.862745%,70.196078%,81.960784%);fill-opacity:1;" />
<path d="M 537.300781 179.460938 L 557.199219 179.460938 L 557.199219 199.359375 L 537.300781 199.359375 Z M 537.300781 179.460938 " style=" stroke:none;fill-rule:nonzero;fill:rgb(36.862745%,70.196078%,81.960784%);fill-opacity:1;" />
<path d="M 407.949219 229.210938 L 557.199219 229.210938 L 557.199219 249.109375 L 407.949219 249.109375 Z M 407.949219 229.210938 " style=" stroke:none;fill-rule:nonzero;fill:rgb(36.862745%,70.196078%,81.960784%);fill-opacity:1;" />
<path d="M 358.199219 278.960938 L 447.75 278.960938 L 447.75 298.859375 L 358.199219 298.859375 Z M 358.199219 278.960938 " style=" stroke:none;fill-rule:nonzero;fill:rgb(36.862745%,70.196078%,81.960784%);fill-opacity:1;" />
<path d="M 298.5 378.460938 L 378.097656 378.460938 L 378.097656 398.359375 L 298.5 398.359375 Z M 298.5 378.460938 " style=" stroke:none;fill-rule:nonzero;fill:rgb(36.862745%,70.196078%,81.960784%);fill-opacity:1;" />
<path d="M 328.351562 269.007812 L 308.449219 269.007812 L 308.449219 249.109375 L 328.351562 249.109375 C 333.84375 249.109375 338.300781 244.652344 338.300781 239.160156 L 338.300781 219.257812 C 338.300781 216.621094 339.34375 214.085938 341.214844 212.222656 L 354.082031 199.359375 L 341.214844 186.496094 C 339.34375 184.632812 338.300781 182.097656 338.300781 179.460938 L 338.300781 159.558594 C 338.300781 154.066406 333.839844 149.609375 328.351562 149.609375 L 308.449219 149.609375 L 308.449219 129.710938 L 328.351562 129.710938 C 344.835938 129.710938 358.199219 143.074219 358.199219 159.558594 L 358.199219 175.339844 L 375.183594 192.324219 C 379.066406 196.207031 379.066406 202.515625 375.183594 206.394531 L 358.199219 223.378906 L 358.199219 239.160156 C 358.199219 255.644531 344.835938 269.007812 328.351562 269.007812 Z M 328.351562 269.007812 " style=" stroke:none;fill-rule:nonzero;fill:rgb(89.019608%,29.411765%,52.941176%);fill-opacity:1;" />
<path d="M 208.949219 269.007812 L 189.050781 269.007812 C 172.5625 269.007812 159.199219 255.644531 159.199219 239.160156 L 159.199219 223.378906 L 142.214844 206.394531 C 138.332031 202.511719 138.332031 196.203125 142.214844 192.324219 L 159.199219 175.339844 L 159.199219 159.558594 C 159.199219 143.070312 172.5625 129.707031 189.050781 129.707031 L 208.949219 129.707031 L 208.949219 149.609375 L 189.050781 149.609375 C 183.558594 149.609375 179.097656 154.066406 179.097656 159.558594 L 179.097656 179.460938 C 179.097656 182.09375 178.054688 184.632812 176.183594 186.492188 L 163.320312 199.359375 L 176.183594 212.222656 C 178.054688 214.085938 179.097656 216.621094 179.097656 219.257812 L 179.097656 239.160156 C 179.097656 244.652344 183.558594 249.109375 189.050781 249.109375 L 208.949219 249.109375 Z M 208.949219 269.007812 " style=" stroke:none;fill-rule:nonzero;fill:rgb(89.019608%,29.411765%,52.941176%);fill-opacity:1;" />
<path d="M 208.949219 209.308594 L 228.851562 209.308594 L 228.851562 229.210938 L 208.949219 229.210938 Z M 208.949219 209.308594 " style=" stroke:none;fill-rule:nonzero;fill:rgb(89.019608%,29.411765%,52.941176%);fill-opacity:1;" />
<path d="M 248.75 209.308594 L 268.648438 209.308594 L 268.648438 229.210938 L 248.75 229.210938 Z M 248.75 209.308594 " style=" stroke:none;fill-rule:nonzero;fill:rgb(89.019608%,29.411765%,52.941176%);fill-opacity:1;" />
<path d="M 288.550781 209.308594 L 308.449219 209.308594 L 308.449219 229.210938 L 288.550781 229.210938 Z M 288.550781 209.308594 " style=" stroke:none;fill-rule:nonzero;fill:rgb(89.019608%,29.411765%,52.941176%);fill-opacity:1;" />
<path d="M 29.851562 298.859375 L 248.75 298.859375 C 259.746094 298.859375 268.648438 307.765625 268.648438 318.761719 L 268.648438 567.507812 C 268.648438 578.503906 259.746094 587.410156 248.75 587.410156 L 29.851562 587.410156 C 18.855469 587.410156 9.949219 578.503906 9.949219 567.507812 L 9.949219 318.757812 C 9.949219 307.765625 18.855469 298.859375 29.851562 298.859375 Z M 29.851562 298.859375 " style=" stroke:none;fill-rule:nonzero;fill:rgb(89.019608%,29.411765%,52.941176%);fill-opacity:1;" />
<path d="M 248.75 298.859375 L 223.875 298.859375 L 9.949219 512.785156 L 9.949219 567.507812 C 9.949219 578.503906 18.855469 587.410156 29.851562 587.410156 L 248.75 587.410156 C 259.746094 587.410156 268.648438 578.503906 268.648438 567.507812 L 268.648438 318.757812 C 268.648438 307.765625 259.746094 298.859375 248.75 298.859375 Z M 248.75 298.859375 " style=" stroke:none;fill-rule:nonzero;fill:rgb(85.098039%,28.235294%,50.588235%);fill-opacity:1;" />
<path d="M 248.75 288.910156 L 29.851562 288.910156 C 13.363281 288.910156 0 302.273438 0 318.757812 L 0 567.507812 C 0 583.996094 13.363281 597.359375 29.851562 597.359375 L 248.75 597.359375 C 265.234375 597.359375 278.597656 583.996094 278.597656 567.507812 L 278.597656 318.757812 C 278.597656 302.273438 265.238281 288.910156 248.75 288.910156 Z M 29.851562 308.808594 L 248.75 308.808594 C 254.242188 308.808594 258.699219 313.265625 258.699219 318.757812 L 258.699219 368.507812 L 19.902344 368.507812 L 19.902344 318.757812 C 19.902344 313.265625 24.359375 308.808594 29.851562 308.808594 Z M 19.902344 567.507812 L 19.902344 388.410156 L 79.601562 388.410156 L 79.601562 577.460938 L 29.851562 577.460938 C 24.359375 577.460938 19.902344 573 19.902344 567.507812 Z M 248.75 577.460938 L 99.5 577.460938 L 99.5 388.410156 L 258.699219 388.410156 L 258.699219 567.507812 C 258.699219 573 254.242188 577.460938 248.75 577.460938 Z M 248.75 577.460938 " style=" stroke:none;fill-rule:nonzero;fill:rgb(74.901961%,23.921569%,45.882353%);fill-opacity:1;" />
<path d="M 348.25 507.808594 L 547.25 507.808594 C 569.230469 507.808594 587.050781 525.628906 587.050781 547.609375 C 587.050781 569.589844 569.230469 587.410156 547.25 587.410156 L 348.25 587.410156 Z M 348.25 507.808594 " style=" stroke:none;fill-rule:nonzero;fill:rgb(75.686275%,78.039216%,78.823529%);fill-opacity:1;" />
<path d="M 378.097656 537.660156 L 398 537.660156 L 398 557.558594 L 378.097656 557.558594 Z M 378.097656 537.660156 " style=" stroke:none;fill-rule:nonzero;fill:rgb(99.215686%,65.490196%,18.431373%);fill-opacity:1;" />
<path d="M 457.699219 537.660156 L 477.597656 537.660156 L 477.597656 557.558594 L 457.699219 557.558594 Z M 457.699219 537.660156 " style=" stroke:none;fill-rule:nonzero;fill:rgb(89.019608%,29.411765%,52.941176%);fill-opacity:1;" />
<path d="M 434.386719 378.460938 L 575.101562 519.171875 C 590.640625 534.714844 590.640625 559.917969 575.101562 575.460938 C 559.558594 591 534.355469 591 518.8125 575.460938 L 378.097656 434.746094 Z M 434.386719 378.460938 " style=" stroke:none;fill-rule:nonzero;fill:rgb(81.568627%,83.137255%,83.921569%);fill-opacity:1;" />
<path d="M 417.886719 430.921875 L 431.957031 416.851562 L 446.027344 430.921875 L 431.957031 444.992188 Z M 417.886719 430.921875 " style=" stroke:none;fill-rule:nonzero;fill:rgb(52.941176%,80.784314%,85.098039%);fill-opacity:1;" />
<path d="M 474.175781 487.199219 L 488.246094 473.128906 L 502.316406 487.199219 L 488.246094 501.273438 Z M 474.175781 487.199219 " style=" stroke:none;fill-rule:nonzero;fill:rgb(36.862745%,70.196078%,81.960784%);fill-opacity:1;" />
<path d="M 587.050781 348.609375 L 587.050781 547.609375 C 587.050781 569.589844 569.230469 587.410156 547.25 587.410156 C 525.269531 587.410156 507.449219 569.589844 507.449219 547.609375 L 507.449219 348.609375 Z M 587.050781 348.609375 " style=" stroke:none;fill-rule:nonzero;fill:rgb(85.490196%,86.666667%,87.45098%);fill-opacity:1;" />
<path d="M 537.300781 537.660156 L 557.199219 537.660156 L 557.199219 557.558594 L 537.300781 557.558594 Z M 537.300781 537.660156 " style=" stroke:none;fill-rule:nonzero;fill:rgb(75.686275%,78.039216%,78.823529%);fill-opacity:1;" />
<path d="M 537.300781 378.460938 L 557.199219 378.460938 L 557.199219 398.359375 L 537.300781 398.359375 Z M 537.300781 378.460938 " style=" stroke:none;fill-rule:nonzero;fill:rgb(89.019608%,29.411765%,52.941176%);fill-opacity:1;" />
<path d="M 537.300781 458.058594 L 557.199219 458.058594 L 557.199219 477.960938 L 537.300781 477.960938 Z M 537.300781 458.058594 " style=" stroke:none;fill-rule:nonzero;fill:rgb(74.901961%,23.921569%,45.882353%);fill-opacity:1;" />
<path d="M 587.050781 338.660156 L 507.449219 338.660156 C 501.957031 338.660156 497.5 343.117188 497.5 348.609375 L 497.5 427.503906 L 441.421875 371.421875 C 437.472656 367.691406 431.300781 367.691406 427.351562 371.421875 L 371.066406 427.710938 C 367.183594 431.59375 367.183594 437.898438 371.066406 441.78125 L 427.144531 497.859375 L 348.25 497.859375 C 342.757812 497.859375 338.300781 502.316406 338.300781 507.808594 L 338.300781 587.410156 C 338.300781 592.902344 342.757812 597.359375 348.25 597.359375 L 547.25 597.359375 C 574.710938 597.328125 596.972656 575.070312 597 547.609375 L 597 348.609375 C 597 343.117188 592.542969 338.660156 587.050781 338.660156 Z M 417.898438 577.460938 L 358.199219 577.460938 L 358.199219 517.757812 L 417.898438 517.757812 Z M 497.5 455.640625 L 497.5 540.078125 L 448.457031 491.035156 L 490.675781 448.816406 Z M 392.167969 434.746094 L 434.386719 392.527344 L 476.605469 434.746094 L 434.386719 476.964844 Z M 437.800781 577.460938 L 437.800781 517.757812 L 447.042969 517.757812 L 506.742188 577.460938 Z M 577.097656 547.609375 C 577.097656 564.097656 563.734375 577.460938 547.25 577.460938 L 547.179688 577.460938 L 547.179688 577.179688 C 539.269531 577.328125 531.636719 574.234375 526.066406 568.613281 C 520.515625 563.03125 517.390625 555.480469 517.398438 547.609375 L 517.398438 517.757812 L 577.097656 517.757812 Z M 577.097656 497.859375 L 517.398438 497.859375 L 517.398438 438.160156 L 577.097656 438.160156 Z M 577.097656 418.257812 L 517.398438 418.257812 L 517.398438 358.558594 L 577.097656 358.558594 Z M 577.097656 418.257812 " style=" stroke:none;fill-rule:nonzero;fill:rgb(0%,0%,0%);fill-opacity:1;" />
<path d="M 537.300781 537.660156 L 557.199219 537.660156 L 557.199219 557.558594 L 537.300781 557.558594 Z M 537.300781 537.660156 " style=" stroke:none;fill-rule:nonzero;fill:rgb(0%,0%,0%);fill-opacity:1;" />
<path d="M 298.5 428.210938 L 348.25 428.210938 L 348.25 448.109375 L 298.5 448.109375 Z M 298.5 428.210938 " style=" stroke:none;fill-rule:nonzero;fill:rgb(0%,0%,0%);fill-opacity:1;" />
<path d="M 557.199219 0.359375 L 119.402344 0.359375 C 97.421875 0.359375 79.597656 18.179688 79.597656 40.160156 L 79.597656 269.007812 L 99.5 269.007812 L 99.5 40.160156 C 99.5 29.164062 108.40625 20.257812 119.402344 20.257812 L 557.199219 20.257812 C 568.195312 20.257812 577.101562 29.164062 577.101562 40.160156 L 577.101562 318.757812 L 597 318.757812 L 597 40.160156 C 597 18.179688 579.179688 0.359375 557.199219 0.359375 Z M 557.199219 0.359375 " style=" stroke:none;fill-rule:nonzero;fill:rgb(0%,0%,0%);fill-opacity:1;" />
<path d="M 119.402344 40.160156 L 139.300781 40.160156 L 139.300781 60.058594 L 119.402344 60.058594 Z M 119.402344 40.160156 " style=" stroke:none;fill-rule:nonzero;fill:rgb(0%,0%,0%);fill-opacity:1;" />
<path d="M 159.199219 40.160156 L 179.101562 40.160156 L 179.101562 60.058594 L 159.199219 60.058594 Z M 159.199219 40.160156 " style=" stroke:none;fill-rule:nonzero;fill:rgb(0%,0%,0%);fill-opacity:1;" />
<path d="M 199 40.160156 L 218.902344 40.160156 L 218.902344 60.058594 L 199 60.058594 Z M 199 40.160156 " style=" stroke:none;fill-rule:nonzero;fill:rgb(0%,0%,0%);fill-opacity:1;" />
<path d="M 119.402344 79.960938 L 557.199219 79.960938 L 557.199219 99.859375 L 119.402344 99.859375 Z M 119.402344 79.960938 " style=" stroke:none;fill-rule:nonzero;fill:rgb(0%,0%,0%);fill-opacity:1;" />
<path d="M 467.648438 278.960938 L 557.199219 278.960938 L 557.199219 298.859375 L 467.648438 298.859375 Z M 467.648438 278.960938 " style=" stroke:none;fill-rule:nonzero;fill:rgb(0%,0%,0%);fill-opacity:1;" />
<path d="M 298.5 328.710938 L 477.597656 328.710938 L 477.597656 348.609375 L 298.5 348.609375 Z M 298.5 328.710938 " style=" stroke:none;fill-rule:nonzero;fill:rgb(0%,0%,0%);fill-opacity:1;" />
<path d="M 407.949219 179.460938 L 517.398438 179.460938 L 517.398438 199.359375 L 407.949219 199.359375 Z M 407.949219 179.460938 " style=" stroke:none;fill-rule:nonzero;fill:rgb(0%,0%,0%);fill-opacity:1;" />
<path d="M 407.949219 129.710938 L 487.550781 129.710938 L 487.550781 149.609375 L 407.949219 149.609375 Z M 407.949219 129.710938 " style=" stroke:none;fill-rule:nonzero;fill:rgb(0%,0%,0%);fill-opacity:1;" />
<path d="M 507.449219 129.710938 L 557.199219 129.710938 L 557.199219 149.609375 L 507.449219 149.609375 Z M 507.449219 129.710938 " style=" stroke:none;fill-rule:nonzero;fill:rgb(0%,0%,0%);fill-opacity:1;" />
<path d="M 537.300781 179.460938 L 557.199219 179.460938 L 557.199219 199.359375 L 537.300781 199.359375 Z M 537.300781 179.460938 " style=" stroke:none;fill-rule:nonzero;fill:rgb(0%,0%,0%);fill-opacity:1;" />
<path d="M 407.949219 229.210938 L 557.199219 229.210938 L 557.199219 249.109375 L 407.949219 249.109375 Z M 407.949219 229.210938 " style=" stroke:none;fill-rule:nonzero;fill:rgb(0%,0%,0%);fill-opacity:1;" />
<path d="M 358.199219 278.960938 L 447.75 278.960938 L 447.75 298.859375 L 358.199219 298.859375 Z M 358.199219 278.960938 " style=" stroke:none;fill-rule:nonzero;fill:rgb(0%,0%,0%);fill-opacity:1;" />
<path d="M 298.5 378.460938 L 378.097656 378.460938 L 378.097656 398.359375 L 298.5 398.359375 Z M 298.5 378.460938 " style=" stroke:none;fill-rule:nonzero;fill:rgb(0%,0%,0%);fill-opacity:1;" />
<path d="M 338.300781 219.257812 L 338.300781 239.160156 C 338.300781 244.652344 333.839844 249.109375 328.351562 249.109375 L 308.449219 249.109375 L 308.449219 269.007812 L 328.351562 269.007812 C 344.835938 269.007812 358.199219 255.644531 358.199219 239.160156 L 358.199219 223.378906 L 375.183594 206.394531 C 379.066406 202.511719 379.066406 196.203125 375.183594 192.324219 L 358.199219 175.339844 L 358.199219 159.558594 C 358.199219 143.070312 344.835938 129.707031 328.351562 129.707031 L 308.449219 129.707031 L 308.449219 149.609375 L 328.351562 149.609375 C 333.84375 149.609375 338.300781 154.066406 338.300781 159.558594 L 338.300781 179.460938 C 338.300781 182.09375 339.34375 184.632812 341.214844 186.492188 L 354.082031 199.359375 L 341.214844 212.222656 C 339.34375 214.085938 338.300781 216.621094 338.300781 219.257812 Z M 338.300781 219.257812 " style=" stroke:none;fill-rule:nonzero;fill:rgb(0%,0%,0%);fill-opacity:1;" />
<path d="M 179.097656 179.460938 L 179.097656 159.558594 C 179.097656 154.066406 183.558594 149.609375 189.050781 149.609375 L 208.949219 149.609375 L 208.949219 129.707031 L 189.050781 129.707031 C 172.5625 129.707031 159.199219 143.070312 159.199219 159.558594 L 159.199219 175.339844 L 142.214844 192.324219 C 138.332031 196.203125 138.332031 202.511719 142.214844 206.394531 L 159.199219 223.378906 L 159.199219 239.160156 C 159.199219 255.644531 172.5625 269.007812 189.050781 269.007812 L 208.949219 269.007812 L 208.949219 249.109375 L 189.050781 249.109375 C 183.558594 249.109375 179.097656 244.652344 179.097656 239.160156 L 179.097656 219.257812 C 179.097656 216.621094 178.054688 214.085938 176.183594 212.222656 L 163.320312 199.359375 L 176.183594 186.496094 C 178.054688 184.632812 179.097656 182.097656 179.097656 179.460938 Z M 179.097656 179.460938 " style=" stroke:none;fill-rule:nonzero;fill:rgb(0%,0%,0%);fill-opacity:1;" />
<path d="M 208.949219 209.308594 L 228.851562 209.308594 L 228.851562 229.210938 L 208.949219 229.210938 Z M 208.949219 209.308594 " style=" stroke:none;fill-rule:nonzero;fill:rgb(0%,0%,0%);fill-opacity:1;" />
<path d="M 248.75 209.308594 L 268.648438 209.308594 L 268.648438 229.210938 L 248.75 229.210938 Z M 248.75 209.308594 " style=" stroke:none;fill-rule:nonzero;fill:rgb(0%,0%,0%);fill-opacity:1;" />
<path d="M 288.550781 209.308594 L 308.449219 209.308594 L 308.449219 229.210938 L 288.550781 229.210938 Z M 288.550781 209.308594 " style=" stroke:none;fill-rule:nonzero;fill:rgb(0%,0%,0%);fill-opacity:1;" />
<path d="M 29.851562 597.359375 L 248.75 597.359375 C 265.234375 597.359375 278.597656 583.996094 278.597656 567.507812 L 278.597656 318.757812 C 278.597656 302.273438 265.234375 288.910156 248.75 288.910156 L 29.851562 288.910156 C 13.363281 288.910156 0 302.273438 0 318.757812 L 0 567.507812 C 0 583.996094 13.363281 597.359375 29.851562 597.359375 Z M 258.699219 567.507812 C 258.699219 573.003906 254.242188 577.460938 248.75 577.460938 L 99.5 577.460938 L 99.5 388.410156 L 258.699219 388.410156 Z M 19.902344 318.757812 C 19.902344 313.265625 24.359375 308.808594 29.851562 308.808594 L 248.75 308.808594 C 254.242188 308.808594 258.699219 313.265625 258.699219 318.757812 L 258.699219 368.507812 L 19.902344 368.507812 Z M 19.902344 388.410156 L 79.601562 388.410156 L 79.601562 577.460938 L 29.851562 577.460938 C 24.359375 577.460938 19.902344 573 19.902344 567.507812 Z M 19.902344 388.410156 " style=" stroke:none;fill-rule:nonzero;fill:rgb(0%,0%,0%);fill-opacity:1;" />
</g>
</svg>