<?xml version="1.0" encoding="iso-8859-1"?>
<!-- Generator: Adobe Illustrator 19.0.0, SVG Export Plug-In . SVG Version: 6.00 Build 0)  -->
<svg version="1.1" id="Capa_1" xmlns="http://www.w3.org/2000/svg" xmlns:xlink="http://www.w3.org/1999/xlink" x="0px" y="0px"
	 viewBox="0 0 511.999 511.999" style="enable-background:new 0 0 511.999 511.999;" xml:space="preserve">
<path style="fill:#898890;" d="M219.388,321.716l-57.083-9.159c-26.662-4.278-52.308,12.071-59.682,38.048l-11.806,41.587
	l-19.936,3.091c-20.329,3.151-37.027,17.727-42.895,37.445l-9.989,33.563c-5.673,19.062,8.607,38.212,28.496,38.212h134.935
	l85.202-66.772L219.388,321.716z"/>
<path style="fill:#787680;" d="M136.627,420.358V314.757c-16.046,5.5-29.089,18.528-34.005,35.848l-11.806,41.587l-19.936,3.091
	c-11.652,1.806-22.098,7.379-30.01,15.509c14.708,8.145,37.294,20.985,56.837,32.156
	C115.052,452.859,136.627,440.335,136.627,420.358z"/>
<path style="fill:#57565C;" d="M40.872,410.795c14.708,8.145,37.295,20.985,56.837,32.156c9.482,5.419,20.221,4.122,28.016-1.422
	l-34.909-49.333l-19.936,3.091C59.228,397.092,48.782,402.665,40.872,410.795z"/>
<path style="fill:#898890;" d="M249.462,330.515l40.973-22.625c20.242-11.178,45.181-9.317,63.54,4.74l42.868,32.823l19.541-2.468
	c30.843-3.896,59.304,17.125,64.652,47.749l13.781,78.922c3.176,18.189-10.823,34.845-29.288,34.845H305.173L249.462,330.515z"/>
<path style="fill:#787680;" d="M416.385,342.983l-19.541,2.468l-42.868-32.823c-8.656-6.627-18.774-10.541-29.174-11.658
	l4.24,94.365c0.828,18.43,20.045,30.167,36.82,22.484l106.62-48.825C460.658,350.841,439.178,340.104,416.385,342.983z"/>
<path style="fill:#57565C;" d="M365.863,417.822l106.62-48.825c-11.825-18.155-33.306-28.893-56.097-26.013l-19.541,2.468
	l-55.493,70.839C348.373,420.634,357.425,421.685,365.863,417.822z"/>
<rect x="203.383" y="183.508" transform="matrix(-0.906 0.4234 -0.4234 -0.906 587.3898 530.5568)" style="fill:#E0E0E2;" width="62.768" height="294.02"/>
<g>
	
		<rect x="150.335" y="195.288" transform="matrix(0.906 -0.4234 0.4234 0.906 -74.8132 97.3508)" style="fill:#D8D7DA;" width="62.768" height="43.566"/>
	
		<rect x="204.861" y="190.151" transform="matrix(-0.906 0.4234 -0.4234 -0.906 563.111 549.2357)" style="fill:#D8D7DA;" width="31.384" height="294.02"/>
</g>
<rect x="151.806" y="201.927" transform="matrix(0.906 -0.4234 0.4234 0.906 -78.9611 91.9544)" style="fill:#C6C5CA;" width="31.384" height="43.566"/>
<path style="fill:#57565C;" d="M119.248,46.291L90.817,59.577c14.853,66.897,46.908,120.287,46.908,120.287l43.705-20.423
	C181.428,159.441,161.037,100.601,119.248,46.291z"/>
<path style="fill:#3E3D42;" d="M113.924,48.779L90.817,59.577c14.853,66.897,46.908,120.287,46.908,120.287l23.108-10.798
	C160.832,169.066,128.778,115.676,113.924,48.779z"/>
<rect x="69.568" y="162.452" transform="matrix(-0.906 0.4234 -0.4234 -0.906 388.7789 272.4049)" style="fill:#FFD422;" width="189.133" height="33.862"/>
<path style="fill:#FFE477;" d="M209.231,192.028l-64.345,30.069c-6.818,3.186-14.928,0.242-18.114-6.576l-14.335-30.677
	c-3.186-6.818-0.242-14.928,6.576-18.114l64.345-30.069c6.818-3.186,14.928-0.242,18.114,6.576l14.335,30.677
	C218.993,180.732,216.049,188.841,209.231,192.028z"/>
<path style="fill:#FFDA44;" d="M157.192,201.305l-14.335-30.676c-3.186-6.818-0.242-14.928,6.576-18.114l-30.421,14.216
	c-6.818,3.186-9.762,11.296-6.576,18.114l14.335,30.677c3.186,6.818,11.296,9.762,18.114,6.576l30.421-14.216
	C168.488,211.067,160.379,208.123,157.192,201.305z"/>
<circle style="fill:#FF3F62;" cx="78.78" cy="219.264" r="20.956"/>
<path style="fill:#FF0C38;" d="M78.78,219.26c-3.282-7.023-2.317-14.927,1.817-20.861c-3.551-0.313-7.227,0.258-10.689,1.875
	c-10.485,4.9-15.013,17.372-10.113,27.857s17.372,15.013,27.857,10.113c3.462-1.618,6.258-4.072,8.296-6.997
	C88.745,230.614,82.063,226.283,78.78,219.26z"/>
<circle style="fill:#FFE477;" cx="99.491" cy="41.081" r="33.579"/>
<path style="fill:#FFDA44;" d="M92.179,44.495c-5.939-12.71-3.228-27.237,5.715-36.96c-4.247,0.201-8.527,1.21-12.618,3.122
	c-16.8,7.851-24.055,27.835-16.204,44.637c7.851,16.801,27.835,24.056,44.637,16.205c4.091-1.912,7.611-4.547,10.49-7.677
	C111.002,64.445,98.119,57.205,92.179,44.495z"/>
<circle style="fill:#6DC82A;" cx="99.491" cy="41.081" r="16.06"/>
<path style="fill:#5EAC24;" d="M99.492,41.078c-2.515-5.382-1.776-11.438,1.393-15.985c-2.721-0.24-5.538,0.197-8.191,1.437
	c-8.035,3.755-11.504,13.312-7.749,21.346c3.755,8.035,13.312,11.504,21.346,7.749c2.653-1.24,4.795-3.12,6.357-5.361
	C107.127,49.778,102.007,46.459,99.492,41.078z"/>
<circle style="fill:#FF3F62;" cx="249.463" cy="139.502" r="20.956"/>
<path style="fill:#FF0C38;" d="M249.462,139.498c-3.282-7.023-2.317-14.927,1.817-20.861c-3.551-0.313-7.227,0.258-10.689,1.875
	c-10.485,4.9-15.013,17.372-10.113,27.857s17.372,15.013,27.857,10.113c3.462-1.618,6.258-4.072,8.296-6.997
	C259.427,150.853,252.745,146.522,249.462,139.498z"/>
<path style="fill:#C6C5CA;" d="M125.725,504.5l37.356-100.521c11.566-31.124,49.394-42.962,76.639-23.984l26.911,18.745
	l41.274-8.982c23.663-5.15,48.217,3.407,63.553,22.15l75.763,92.593L125.725,504.5L125.725,504.5z"/>
<path style="fill:#ACABB1;" d="M283.268,459.307c19.046-18.272,45.726-43.948,66.692-64.436
	c-12.816-6.282-27.599-8.259-42.056-5.113l-41.274,8.982l-26.911-18.745c-14.482-10.087-31.955-11.467-46.883-5.873
	c12.505,21.338,33.418,55.518,48.37,79.807C250.311,468.721,270.734,471.331,283.268,459.307z"/>
<path style="fill:#898890;" d="M283.268,459.313c19.046-18.272,45.727-43.948,66.692-64.436
	c-12.816-6.282-27.599-8.259-42.056-5.113l-41.274,8.982l-10.956,66.713C264.88,468.558,275.563,466.705,283.268,459.313z"/>
<path d="M502.207,468.365l-13.78-78.922c-6.048-34.63-38.113-58.308-72.98-53.9l-16.486,2.083l-40.424-30.951
	c-20.723-15.867-48.876-17.967-71.727-5.35l-18.155,10.025l-53.321-114.22c6.299-4.282,9.714-11.597,9.176-19.004
	c0,0,21.798-10.201,22.014-10.33c0.985,0.104,8.15,0.864,14.988-2.518c14.064-6.955,20.374-23.612,13.732-37.828c0,0,0,0,0-0.001
	c-6.645-14.213-23.612-20.374-37.828-13.732c-4.755,2.222-8.714,5.631-11.564,9.88c-0.176,0.067-22.028,10.263-22.028,10.263
	c-12.866-11.201-25.957-2.912-25.957-2.912c-8.693-19.344-22.236-46.007-40.915-73.084c4.706-10.52,5.008-22.942-0.243-34.179l0,0
	C127.118,3.165,102.622-5.73,82.1,3.862C72.16,8.507,64.624,16.745,60.878,27.059c-3.744,10.313-2.795,21.269,1.397,31.41
	c7.727,18.69,25.109,21.867,26.073,22.14c8.733,31.505,20.391,58.866,29.804,78.243c0,0-16.316,5.307-14.43,21.784
	c0,0-21.72,10.175-21.969,10.329c-4.98-0.532-10.161,0.241-15.019,2.512c-14.215,6.644-20.376,23.613-13.733,37.83
	c4.828,10.33,15.109,16.406,25.824,16.406c4.028,0,8.119-0.859,12.003-2.674c4.738-2.214,8.688-5.606,11.535-9.834l22.035-10.298
	c3.955,3.832,10.439,8.087,20.493,5.164l36.422,77.937l-17.819-2.859c-30.407-4.88-59.676,13.781-68.086,43.405l-10.492,36.96
	l-15.183,2.354c-41.73,6.795-50.409,47.671-50.409,47.671c-1.182,3.97,1.079,8.146,5.049,9.328c0.714,0.212,7.297,1.545,9.328-5.049
	c0,0,4.135-13.654,8.871-19.501c12.194,6.806,29.44,16.58,51.416,29.139c5.214,2.98,10.924,4.469,16.632,4.469
	c5.779,0,11.558-1.527,16.815-4.578c10.453-6.065,16.693-16.903,16.693-28.99v-99.926c5.448-1.19,11.19-1.401,16.988-0.471
	l27.871,4.472l18.243,39.039c-4.673,0.289-37.894,0.358-51.182,37.894l-35.539,95.634H46.493c-7.088,0-13.583-3.259-17.82-8.941
	c-4.237-5.682-5.508-12.837-3.486-19.631c1.182-3.97-1.079-8.146-5.049-9.328c-3.972-1.182-8.147,1.08-9.328,5.049
	c-3.386,11.377-1.258,23.361,5.839,32.878c7.097,9.516,17.975,14.974,29.846,14.974h419.037c11.021,0,21.41-4.839,28.502-13.276
	S504.102,479.221,502.207,468.365z M101.43,436.435c-19.597-11.2-35.442-20.189-47.326-26.852
	c5.341-3.486,11.429-5.883,17.924-6.889l15.347-2.379l27.018,38.188C110.04,439.426,105.467,438.742,101.43,436.435z
	 M129.128,420.358c0,3.401-0.898,6.621-2.539,9.406l-27.577-38.977l10.826-38.136c3.151-11.099,10.192-20.15,19.29-25.996
	L129.128,420.358L129.128,420.358z M417.325,350.424c16.774-2.121,32.696,4.176,43.446,15.686l-85.225,39.029
	c-2.813-3.195-5.866-6.099-9.116-8.699l34.416-43.934L417.325,350.424z M386.264,346.796l-32.525,41.521
	c-5.402-2.703-11.121-4.706-17.027-5.968l-3.9-72.174c5.902,1.724,11.541,4.532,16.605,8.41L386.264,346.796z M294.06,314.455
	c7.395-4.083,15.509-6.161,23.619-6.304l3.923,72.616c-6.929-0.269-19.354,2.545-19.354,2.545l-27.236-58.34L294.06,314.455z
	 M250.081,453.233c-0.927-0.981-33.262-53.388-45.741-74.38c10.855-1.637,21.893,0.889,31.092,7.296l23.031,16.043L250.081,453.233z
	 M270.89,390.137l-33.976-72.704c-1.755-3.753-6.221-5.373-9.97-3.62c-3.753,1.754-5.373,6.218-3.62,9.97l24.7,52.855
	c0,0-13.275-10.307-23.509-11.613l-65.918-141.057l14.841-6.935l36.912,78.987c3.322,5.809,8.943,4.099,9.97,3.62
	c3.753-1.754,5.373-6.217,3.62-9.97l-36.912-78.987l14.839-6.934l85.354,182.835L270.89,390.137z M223.682,151.546
	c1.381,2.955,3.224,5.601,5.438,7.867l-9.694,4.53l-7.984-17.086l9.694-4.53C221.454,145.48,222.301,148.591,223.682,151.546z
	 M236.814,134.906c1.227-3.378,3.695-6.077,6.951-7.599c1.837-0.858,3.771-1.265,5.676-1.265c5.066,0,9.929,2.874,12.212,7.758
	c3.141,6.722,0.228,14.747-6.493,17.888c-3.258,1.522-6.91,1.684-10.289,0.458c-3.379-1.227-6.077-3.695-7.599-6.952
	C235.75,141.939,235.588,138.285,236.814,134.906z M75.866,52.118c-2.949-6.311-3.265-13.392-0.888-19.939
	c2.377-6.548,7.162-11.778,13.472-14.727C92.011,15.787,95.758,15,99.452,15c9.818,0,19.242,5.57,23.666,15.036
	c6.088,13.027,0.441,28.58-12.586,34.668c-6.308,2.949-13.39,3.264-19.939,0.887C84.045,63.214,78.814,58.429,75.866,52.118z
	 M104.306,81.885c4.3-0.512,8.539-1.706,12.576-3.593c4.085-1.909,7.701-4.417,10.811-7.359
	c16.532,24.689,28.655,48.702,36.581,66.366l-32.531,15.201C123.142,134.817,112.583,110.225,104.306,81.885z M104.561,207.213
	L104.561,207.213c-1.399-2.994-3.261-5.626-5.454-7.861l9.709-4.537l7.984,17.086l-9.694,4.53
	C106.79,213.279,105.942,210.169,104.561,207.213z M84.478,231.45c-6.727,3.142-14.747,0.228-17.888-6.493
	c-3.142-6.722-0.229-14.747,6.493-17.888c1.838-0.859,13.024-4.626,17.888,6.493C94.003,220.495,91.2,228.309,84.478,231.45z
	 M133.566,212.346l-14.335-30.676c-0.693-1.483-1.561-5.675,2.956-8.144l64.345-30.069c0.837-0.391,1.717-0.576,2.585-0.576
	c2.307,0,4.521,1.308,5.56,3.532l14.333,30.673c0,0.001,0.001,0.003,0.001,0.004c0,0,0,0.001,0.001,0.001
	c1.428,3.06,0.102,6.712-2.957,8.143l-64.344,30.069C138.651,216.732,134.997,215.407,133.566,212.346z M136.512,497l33.598-90.409
	c3.679-9.899,10.664-17.894,19.696-22.838c12.609,21.291,31.118,51.537,45.013,74.107c5.534,8.991,14.712,14.915,25.181,16.253
	c1.49,0.191,15.339,2.052,28.46-9.395c4.765-4.157,11.607-11.138,16.862-16.192c2.985-2.872,3.078-7.62,0.206-10.605
	c-2.871-2.984-7.616-3.077-10.604-0.207c-5.251,5.05-12.289,11.805-16.849,16.179c-3.754,3.602-8.682,5.54-13.805,5.497
	l8.935-54.407c0,0,39.639-8.513,39.732-8.532c9.403-1.954,15.758-0.746,23.348,1.276c-5.923,5.763-12.473,12.112-19.573,18.975
	c-2.979,2.879-3.06,7.627-0.181,10.605c1.471,1.522,6.309,3.69,10.604,0.181c9.661-7.893,17.053-16.512,24.119-23.402
	c5.372,3.289,10.252,7.503,14.397,12.57l65.74,80.342L136.512,497L136.512,497z M482.55,489.073
	c-4.234,5.038-10.438,7.927-17.019,7.927h-14.754l-65.362-79.881l83.945-38.443c1.991,4.136,3.462,8.604,4.29,13.346l13.781,78.923
	C488.562,477.427,486.783,484.035,482.55,489.073z"/>
<g>
</g>
<g>
</g>
<g>
</g>
<g>
</g>
<g>
</g>
<g>
</g>
<g>
</g>
<g>
</g>
<g>
</g>
<g>
</g>
<g>
</g>
<g>
</g>
<g>
</g>
<g>
</g>
<g>
</g>
</svg>
