<?xml version="1.0" encoding="iso-8859-1"?>
<!-- Generator: Adobe Illustrator 19.0.0, SVG Export Plug-In . SVG Version: 6.00 Build 0)  -->
<svg version="1.1" id="Capa_1" xmlns="http://www.w3.org/2000/svg" xmlns:xlink="http://www.w3.org/1999/xlink" x="0px" y="0px"
	 viewBox="0 0 512 512" style="enable-background:new 0 0 512 512;" xml:space="preserve">
<circle style="fill:#FF5842;" cx="256" cy="256" r="256"/>
<path style="fill:#FD3018;" d="M512,256c0-6.328-0.239-12.599-0.69-18.812l-99.157-99.157l-38.639,14.649L283,62.167L62.167,283
	l92.289,92.289l-16.424,36.864l99.157,99.157c6.213,0.451,12.484,0.69,18.812,0.69C397.385,512,512,397.385,512,256z"/>
<path style="fill:#EBEEF0;" d="M449.833,283v-54h-8.468c-19.951,0-37.784-12.155-45.387-30.601c-0.083-0.201-0.166-0.401-0.25-0.602
	c-7.672-18.387-3.788-39.555,10.3-53.643l6.123-6.123l-38.184-38.184l-6.123,6.123c-14.088,14.088-35.256,17.972-53.643,10.3
	c-0.2-0.084-0.401-0.167-0.602-0.25C295.155,108.419,283,90.585,283,70.634v-8.468h-54v8.468c0,19.951-12.155,37.784-30.601,45.387
	c-0.201,0.083-0.401,0.166-0.602,0.25c-18.387,7.672-39.555,3.788-53.643-10.3l-6.123-6.123l-38.184,38.184l6.123,6.123
	c14.088,14.088,17.972,35.256,10.3,53.643c-0.084,0.2-0.167,0.401-0.25,0.602c-7.601,18.445-25.435,30.6-45.386,30.6h-8.468v54
	h8.467c19.951,0,37.784,12.155,45.387,30.601c0.083,0.201,0.166,0.401,0.25,0.602c7.672,18.387,3.788,39.555-10.3,53.643
	l-6.123,6.123l38.184,38.184l6.123-6.123c14.088-14.088,35.256-17.972,53.643-10.3c0.2,0.084,0.401,0.167,0.602,0.25
	C216.845,403.581,229,421.415,229,441.366v8.468h54v-8.468c0-19.951,12.155-37.784,30.601-45.387
	c0.201-0.083,0.401-0.166,0.602-0.25c18.387-7.672,39.555-3.788,53.643,10.3l6.123,6.123l38.184-38.184l-6.123-6.123
	c-14.088-14.088-17.972-35.256-10.3-53.643c0.084-0.2,0.167-0.401,0.25-0.602c7.601-18.445,25.435-30.6,45.386-30.6H449.833z
	 M256,371c-63.513,0-115-51.487-115-115s51.487-115,115-115s115,51.487,115,115S319.513,371,256,371z"/>
<path style="fill:#CED7DB;" d="M441.366,229c-19.951,0-37.784-12.155-45.387-30.601c-0.083-0.201-0.166-0.401-0.25-0.602
	c-7.672-18.387-3.788-39.555,10.3-53.643l6.123-6.123l-38.184-38.184l-6.123,6.123c-14.088,14.088-35.256,17.972-53.643,10.3
	c-0.2-0.084-0.401-0.167-0.602-0.25c-18.445-7.601-30.6-25.435-30.6-45.386v-8.468h-28.024v78.846
	C255.318,141.01,255.658,141,256,141c63.513,0,115,51.487,115,115s-51.487,115-115,115c-0.342,0-0.682-0.01-1.024-0.013v78.846H283
	v-8.468c0-19.951,12.155-37.784,30.601-45.387c0.201-0.083,0.401-0.166,0.602-0.25c18.387-7.672,39.555-3.788,53.643,10.301
	l6.123,6.123l38.184-38.184l-6.123-6.123c-14.088-14.088-17.972-35.256-10.3-53.643c0.084-0.2,0.167-0.401,0.25-0.602
	c7.601-18.445,25.435-30.6,45.386-30.6h8.468v-54H441.366z"/>
<path style="fill:#37474F;" d="M329.625,223.744c0-30.842-18.972-57.238-45.875-68.197v71.072h-55.5v-71.072
	c-26.903,10.959-45.875,37.356-45.875,68.197c0,30.937,19.09,47.399,46.125,58.296v85.642c8.812,2.163,18.021,3.318,27.5,3.318
	s18.688-1.155,27.5-3.318V282.04C310.535,271.143,329.625,254.681,329.625,223.744z"/>
<path style="fill:#263238;" d="M283.75,155.547v71.072h-28.774v144.365c0.342,0.003,0.681,0.016,1.024,0.016
	c9.479,0,18.688-1.155,27.5-3.318V282.04c27.035-10.897,46.125-27.359,46.125-58.296
	C329.625,192.903,310.653,166.506,283.75,155.547z"/>
<g>
</g>
<g>
</g>
<g>
</g>
<g>
</g>
<g>
</g>
<g>
</g>
<g>
</g>
<g>
</g>
<g>
</g>
<g>
</g>
<g>
</g>
<g>
</g>
<g>
</g>
<g>
</g>
<g>
</g>
</svg>
